<svg width="28" height="20" viewBox="0 0 28 20" fill="none" xmlns="http://www.w3.org/2000/svg">
<path d="M27.753 14.0863C20.0005 6.89378 7.94421 6.89378 0.221143 14.0863C-0.0737145 14.3811 -0.0737145 14.8526 0.221143 15.1474L4.11226 19.0386C4.37751 19.3038 4.81977 19.3334 5.11444 19.068C10.1552 14.5285 17.8487 14.5285 22.8893 19.068C23.1841 19.3332 23.6262 19.3038 23.8915 19.0386L27.7826 15.1474C28.0772 14.8528 28.0772 14.3811 27.753 14.0863H27.753Z" fill="#FDC32A"/>
<path d="M4.58384 7.60143L9.86029 6.45181C10.3908 6.33399 10.5678 5.68546 10.1846 5.33162L8.97593 4.12321C10.4498 2.94422 12.2185 2.35446 13.987 2.35446C15.7558 2.35446 17.5539 2.94396 18.9981 4.12321L17.7895 5.33183C17.4062 5.7151 17.6127 6.36365 18.1138 6.45203L23.3902 7.57222C23.8619 7.66063 24.2746 7.24796 24.1862 6.77628L23.066 1.49983C22.9481 0.969341 22.2996 0.792319 21.9458 1.17557L20.6783 2.44299C16.8169 -0.799627 11.1572 -0.828999 7.29562 2.44299L6.0282 1.20478C5.64493 0.821512 4.99639 1.02795 4.90801 1.52904L3.78782 6.80549C3.67 7.27717 4.11208 7.68986 4.58376 7.60143H4.58384Z" fill="#FDC32A"/>
</svg>
