<svg width="244" height="150" viewBox="0 0 244 150" fill="none" xmlns="http://www.w3.org/2000/svg">
<g clip-path="url(#clip0_3_1103)">
<path fill-rule="evenodd" clip-rule="evenodd" d="M100.056 0H58.7514C56.9505 0 55.4905 1.45994 55.4905 3.26087V29.4843C45.2859 30.3137 32.3853 34.9252 21.6157 43.51C9.55664 53.1226 0 67.8661 0 88.0435C0 111.042 11.5593 126.606 24.5502 136.308C31.0233 141.142 37.8731 144.545 43.8944 146.745C49.8542 148.922 55.2242 150 58.7514 150C60.5522 150 62.0122 148.54 62.0122 146.739V130.421C72.1923 130.178 84.5777 126.698 94.621 119.032C105.16 110.987 113.044 98.3711 113.044 80.4348C113.044 62.4246 104.593 49.5524 93.584 41.2791C83.7847 33.9148 71.9216 30.1487 62.0122 29.463V6.52174H100.056C101.857 6.52174 103.317 5.0618 103.317 3.26087C103.317 1.45994 101.857 0 100.056 0ZM55.4905 36.0311C46.7403 36.8633 35.3176 40.928 25.6809 48.6096C14.8999 57.2035 6.52175 70.1774 6.52175 88.0435C6.52175 108.523 16.7016 122.307 28.4529 131.083C34.3509 135.488 40.6231 138.607 46.1322 140.619C49.7844 141.953 53.0061 142.767 55.4905 143.169V130.02C46.6455 128.663 38.2285 124.078 31.7053 117.682C23.8607 109.99 18.4783 99.4061 18.4783 88.0435C18.4783 73.3696 24.985 62.9576 33.2916 56.2887C40.317 50.6485 48.6542 47.6574 55.4905 46.9211V36.0311ZM62.0122 46.8939V36.0024C70.6364 36.6867 81.0723 40.0343 89.6657 46.4926C99.2675 53.7085 106.522 64.7493 106.522 80.4348C106.522 96.1941 99.704 106.947 90.6636 113.848C81.8849 120.55 70.9416 123.652 62.0122 123.897V113.043C68.0583 113.031 76.0853 110.931 82.6781 105.842C89.419 100.64 94.5653 92.3696 94.5653 80.4348C94.5653 68.447 89.1425 59.9083 81.9005 54.4596C75.8203 49.8846 68.4896 47.497 62.0122 46.8939ZM55.4905 53.4891C50.0205 54.2156 43.189 56.7063 37.3746 61.3743C30.4498 66.9337 25 75.5435 25 88.0435C25 97.333 29.4281 106.315 36.2713 113.025C41.722 118.37 48.5298 122.101 55.4905 123.404V112.153C45.5318 109.402 36.9566 100.463 36.9566 88.0435C36.9566 75.6009 46.0905 67.1259 55.4905 65.5015V53.4891ZM62.0122 65.4878V53.4493C67.2499 54.0393 73.1425 56.0315 77.9794 59.6709C83.7394 64.0048 88.0436 70.6835 88.0436 80.4348C88.0436 90.2391 83.9229 96.643 78.6933 100.68C73.3568 104.798 66.7696 106.508 62.0122 106.522V97.788C65.064 97.5878 68.7362 96.5822 71.8444 94.3676C75.4916 91.7687 78.261 87.5524 78.261 81.5217C78.261 75.185 74.6718 70.992 70.6016 68.5387C67.8383 66.8733 64.7336 65.915 62.0122 65.4878ZM55.4905 72.1622C49.3787 73.7259 43.4783 79.5324 43.4783 88.0435C43.4783 96.4493 48.8481 102.776 55.4905 105.31V72.1622ZM62.0122 72.1183C63.7244 72.4859 65.5929 73.1346 67.2351 74.1243C69.9275 75.7472 71.7392 78.0759 71.7392 81.5217C71.7392 85.2737 70.1329 87.5791 68.0599 89.0563C66.2222 90.3657 63.9531 91.0504 62.0122 91.2452V72.1183Z" fill="white"/>
<path fill-rule="evenodd" clip-rule="evenodd" d="M143.423 0H184.727C186.528 0 187.988 1.45994 187.988 3.26087V29.4843C198.193 30.3137 211.093 34.9252 221.863 43.51C233.922 53.1226 243.478 67.8661 243.478 88.0435C243.478 111.042 231.92 126.606 218.928 136.308C212.455 141.142 205.605 144.545 199.584 146.745C193.624 148.922 188.254 150 184.727 150C182.926 150 181.466 148.54 181.466 146.739V130.421C171.286 130.178 158.901 126.698 148.857 119.032C138.319 110.987 130.435 98.3711 130.435 80.4348C130.435 62.4246 138.886 49.5524 149.894 41.2791C159.694 33.9148 171.557 30.1487 181.466 29.463V6.52174H143.423C141.622 6.52174 140.162 5.0618 140.162 3.26087C140.162 1.45994 141.622 0 143.423 0ZM187.988 36.0311C196.738 36.8633 208.161 40.928 217.798 48.6096C228.578 57.2035 236.957 70.1774 236.957 88.0435C236.957 108.523 226.776 122.307 215.026 131.083C209.128 135.488 202.855 138.607 197.346 140.619C193.694 141.953 190.472 142.767 187.988 143.169V130.02C196.833 128.663 205.25 124.078 211.773 117.682C219.618 109.99 225 99.4061 225 88.0435C225 73.3696 218.494 62.9576 210.187 56.2887C203.161 50.6485 194.824 47.6574 187.988 46.9211V36.0311ZM181.466 46.8939V36.0024C172.842 36.6867 162.406 40.0343 153.813 46.4926C144.211 53.7085 136.957 64.7493 136.957 80.4348C136.957 96.1941 143.774 106.947 152.815 113.848C161.594 120.55 172.537 123.652 181.466 123.897V113.043C175.42 113.031 167.393 110.931 160.8 105.842C154.059 100.64 148.913 92.3696 148.913 80.4348C148.913 68.447 154.336 59.9083 161.578 54.4596C167.658 49.8846 174.989 47.497 181.466 46.8939ZM187.988 53.4891C193.458 54.2156 200.289 56.7063 206.104 61.3743C213.029 66.9337 218.478 75.5435 218.478 88.0435C218.478 97.333 214.05 106.315 207.207 113.025C201.756 118.37 194.949 122.101 187.988 123.404V112.153C197.947 109.402 206.522 100.463 206.522 88.0435C206.522 75.6009 197.388 67.1259 187.988 65.5015V53.4891ZM181.466 65.4878V53.4493C176.229 54.0393 170.336 56.0315 165.499 59.6709C159.739 64.0048 155.435 70.6835 155.435 80.4348C155.435 90.2391 159.556 96.643 164.785 100.68C170.122 104.798 176.709 106.508 181.466 106.522V97.788C178.414 97.5878 174.742 96.5822 171.634 94.3676C167.987 91.7687 165.217 87.5524 165.217 81.5217C165.217 75.185 168.807 70.992 172.877 68.5387C175.64 66.8733 178.745 65.915 181.466 65.4878ZM187.988 72.1622C194.1 73.7259 200 79.5324 200 88.0435C200 96.4493 194.63 102.776 187.988 105.31V72.1622ZM181.466 72.1183C179.754 72.4859 177.886 73.1346 176.243 74.1243C173.551 75.7472 171.739 78.0759 171.739 81.5217C171.739 85.2737 173.346 87.5791 175.419 89.0563C177.256 90.3657 179.525 91.0504 181.466 91.2452V72.1183Z" fill="white"/>
</g>
<defs>
<clipPath id="clip0_3_1103">
<rect width="243.478" height="150" fill="white"/>
</clipPath>
</defs>
</svg>
