<svg width="51" height="11" viewBox="0 0 51 11" fill="none" xmlns="http://www.w3.org/2000/svg">
<g clip-path="url(#clip0_572_351)">
<path fill-rule="evenodd" clip-rule="evenodd" d="M6.84711 0H4.07183C3.95083 0 3.85273 0.0980949 3.85273 0.219101V1.98108C3.16707 2.03681 2.30026 2.34666 1.57665 2.92348C0.766387 3.56936 0.124268 4.55999 0.124268 5.91573C0.124268 7.46102 0.900945 8.50679 1.77382 9.15869C2.20875 9.4835 2.669 9.71215 3.07357 9.85994C3.47402 10.0062 3.83483 10.0786 4.07183 10.0786C4.19283 10.0786 4.29093 9.98055 4.29093 9.85955V8.76312C4.97494 8.7468 5.80713 8.51299 6.48194 7.99789C7.19005 7.45735 7.71978 6.60965 7.71978 5.40449C7.71978 4.19437 7.15195 3.32947 6.41227 2.77358C5.75384 2.27877 4.95675 2.02572 4.29093 1.97965V0.438202H6.84711C6.96811 0.438202 7.06621 0.340108 7.06621 0.219101C7.06621 0.0980949 6.96811 0 6.84711 0ZM3.85273 2.42096C3.26479 2.47688 2.49729 2.75 1.84979 3.26612C1.12541 3.84356 0.56247 4.71529 0.56247 5.91573C0.56247 7.29178 1.24647 8.21792 2.03604 8.8076C2.43234 9.10357 2.85377 9.31312 3.22394 9.44834C3.46933 9.53798 3.6858 9.59265 3.85273 9.61967V8.73614C3.25842 8.645 2.69288 8.33691 2.25457 7.90714C1.72749 7.39031 1.36584 6.67919 1.36584 5.91573C1.36584 4.92977 1.80304 4.23018 2.36116 3.78209C2.83321 3.40312 3.39339 3.20215 3.85273 3.15267V2.42096ZM4.29093 3.15085V2.41904C4.87039 2.46502 5.57159 2.68995 6.149 3.12388C6.79415 3.60873 7.28157 4.35057 7.28157 5.40449C7.28157 6.46338 6.82348 7.1859 6.21604 7.64958C5.62619 8.09984 4.8909 8.30832 4.29093 8.32477V7.5955C4.69717 7.59464 5.23651 7.45355 5.67949 7.11164C6.13242 6.76207 6.4782 6.2064 6.4782 5.40449C6.4782 4.59902 6.11384 4.02529 5.62724 3.65919C5.21871 3.35179 4.72615 3.19137 4.29093 3.15085ZM3.85273 3.59399C3.48519 3.6428 3.02618 3.81015 2.6355 4.1238C2.17022 4.49734 1.80404 5.07584 1.80404 5.91573C1.80404 6.5399 2.10157 7.14339 2.56137 7.59426C2.92761 7.95337 3.38503 8.20408 3.85273 8.29161V7.5357C3.18359 7.35082 2.60741 6.75018 2.60741 5.91573C2.60741 5.0797 3.22113 4.51025 3.85273 4.40111V3.59399ZM4.29093 4.40019V3.59131C4.64285 3.63096 5.03878 3.76481 5.36378 4.00934C5.7508 4.30054 6.04 4.74929 6.04 5.40449C6.04 6.06326 5.76313 6.49354 5.41175 6.76476C5.05318 7.0415 4.61058 7.15641 4.29093 7.1573V6.57047C4.49598 6.55702 4.74272 6.48945 4.95156 6.34065C5.19662 6.16603 5.3827 5.88273 5.3827 5.47753C5.3827 5.05175 5.14154 4.77002 4.86806 4.60518C4.68239 4.49328 4.47378 4.42889 4.29093 4.40019ZM3.85273 4.84865C3.44207 4.95371 3.04562 5.34386 3.04562 5.91573C3.04562 6.48053 3.40642 6.9056 3.85273 7.07585V4.84865ZM4.29093 4.8457C4.40597 4.8704 4.53152 4.91398 4.64186 4.98049C4.82276 5.08953 4.94449 5.24599 4.94449 5.47753C4.94449 5.72962 4.83657 5.88453 4.69728 5.98378C4.5738 6.07176 4.42134 6.11777 4.29093 6.13086V4.8457Z" fill="white"/>
<path fill-rule="evenodd" clip-rule="evenodd" d="M9.76109 0H12.5364C12.6574 0 12.7555 0.0980949 12.7555 0.219101V1.98108C13.4411 2.03681 14.3079 2.34666 15.0316 2.92348C15.8418 3.56936 16.4839 4.55999 16.4839 5.91573C16.4839 7.46102 15.7073 8.50679 14.8344 9.15869C14.3995 9.4835 13.9392 9.71215 13.5346 9.85994C13.1342 10.0062 12.7734 10.0786 12.5364 10.0786C12.4154 10.0786 12.3173 9.98055 12.3173 9.85955V8.76312C11.6333 8.7468 10.8011 8.51299 10.1263 7.99789C9.41816 7.45735 8.88843 6.60965 8.88843 5.40449C8.88843 4.19437 9.45625 3.32947 10.1959 2.77358C10.8544 2.27877 11.6515 2.02572 12.3173 1.97965V0.438202H9.76109C9.64009 0.438202 9.54199 0.340108 9.54199 0.219101C9.54199 0.0980949 9.64009 0 9.76109 0ZM12.7555 2.42096C13.3434 2.47688 14.1109 2.75 14.7584 3.26612C15.4828 3.84356 16.0457 4.71529 16.0457 5.91573C16.0457 7.29178 15.3617 8.21792 14.5722 8.8076C14.1759 9.10357 13.7544 9.31312 13.3843 9.44834C13.1389 9.53798 12.9224 9.59265 12.7555 9.61967V8.73614C13.3498 8.645 13.9153 8.33691 14.3536 7.90714C14.8807 7.39031 15.2424 6.67919 15.2424 5.91573C15.2424 4.92977 14.8052 4.23018 14.247 3.78209C13.775 3.40312 13.2148 3.20215 12.7555 3.15267V2.42096ZM12.3173 3.15085V2.41904C11.7378 2.46502 11.0366 2.68995 10.4592 3.12388C9.81406 3.60873 9.32663 4.35057 9.32663 5.40449C9.32663 6.46338 9.78473 7.1859 10.3922 7.64958C10.982 8.09984 11.7173 8.30832 12.3173 8.32477V7.5955C11.911 7.59464 11.3717 7.45355 10.9287 7.11164C10.4758 6.76207 10.13 6.2064 10.13 5.40449C10.13 4.59902 10.4944 4.02529 10.981 3.65919C11.3895 3.35179 11.8821 3.19137 12.3173 3.15085ZM12.7555 3.59399C13.123 3.6428 13.582 3.81015 13.9727 4.1238C14.438 4.49734 14.8042 5.07584 14.8042 5.91573C14.8042 6.5399 14.5066 7.14339 14.0468 7.59426C13.6806 7.95337 13.2232 8.20408 12.7555 8.29161V7.5357C13.4246 7.35082 14.0008 6.75018 14.0008 5.91573C14.0008 5.0797 13.3871 4.51025 12.7555 4.40111V3.59399ZM12.3173 4.40019V3.59131C11.9654 3.63096 11.5694 3.76481 11.2444 4.00934C10.8574 4.30054 10.5682 4.74929 10.5682 5.40449C10.5682 6.06326 10.8451 6.49354 11.1965 6.76476C11.555 7.0415 11.9976 7.15641 12.3173 7.1573V6.57047C12.1122 6.55702 11.8655 6.48945 11.6566 6.34065C11.4116 6.16603 11.2255 5.88273 11.2255 5.47753C11.2255 5.05175 11.4667 4.77002 11.7401 4.60518C11.9258 4.49328 12.1344 4.42889 12.3173 4.40019ZM12.7555 4.84865C13.1661 4.95371 13.5626 5.34386 13.5626 5.91573C13.5626 6.48053 13.2018 6.9056 12.7555 7.07585V4.84865ZM12.3173 4.8457C12.2022 4.8704 12.0767 4.91398 11.9663 4.98049C11.7854 5.08953 11.6637 5.24599 11.6637 5.47753C11.6637 5.72962 11.7716 5.88453 11.9109 5.98378C12.0344 6.07176 12.1869 6.11777 12.3173 6.13086V4.8457Z" fill="white"/>
</g>
<path d="M50.1244 8.98539H49.0503L48.1799 6.97605L46.1489 7.81465L44.1931 7.00913L43.3226 8.98666H42.2588L45.6972 1.12109H46.686L50.1244 8.98666V8.98539ZM47.7714 6.08272L46.1922 2.45089L44.5799 6.11454L46.1489 6.75972L47.7714 6.08272Z" fill="white"/>
<path d="M40.1716 6.55738V8.98539H39.1829V6.55738L36.0664 1.12109H37.2702L39.6664 5.54826L42.0728 1.12109H43.2766L40.1716 6.55738V6.55738Z" fill="white"/>
<path d="M34.0598 1.12109H35.0486V8.98666H34.0598V1.12109Z" fill="white"/>
<path d="M31.3122 6.21507L33.0416 8.98666H31.881L30.2369 6.41868L28.1308 6.95568V8.98666H27.1421V1.12109H30.4189C31.1175 1.12109 31.7729 1.40105 32.2666 1.8948C32.7718 2.38855 33.0403 3.0439 33.0403 3.74252C33.0403 4.44115 32.7718 5.10669 32.2666 5.60171C31.9866 5.87021 31.6647 6.08527 31.3097 6.2138H31.3122V6.21507ZM31.5705 4.90563C31.8925 4.59385 32.0541 4.18537 32.0541 3.74507C32.0541 3.30477 31.8925 2.90647 31.5705 2.58451C31.2702 2.28419 30.8617 2.11113 30.4214 2.11113H28.1321V5.97965L30.4214 5.38919C30.8617 5.2823 31.2702 5.2174 31.5705 4.90563Z" fill="white"/>
<path d="M26.1241 8.98666H24.9635L23.0827 5.98856L21.2134 8.98666H20.2246V1.12109H21.2134V7.12748L24.9635 1.12109H26.1241L23.663 5.06469L26.1241 8.98666Z" fill="white"/>
<defs>
<clipPath id="clip0_572_351">
<rect width="16.3596" height="10.0786" fill="white" transform="translate(0.124268)"/>
</clipPath>
</defs>
</svg>
