<svg width="601" height="134" viewBox="0 0 601 134" fill="none" xmlns="http://www.w3.org/2000/svg">
<g clip-path="url(#clip0_451_235)">
<path fill-rule="evenodd" clip-rule="evenodd" d="M89.2209 0.000244146L52.4623 0.000244144C50.8596 0.000244144 49.5603 1.29773 49.5603 2.89826L49.5603 26.2037C40.4788 26.9408 28.9979 31.0391 19.4135 38.6686C8.68165 47.2116 0.176758 60.3145 0.176758 78.2466C0.176758 98.6859 10.4639 112.518 22.0251 121.141C27.7858 125.437 33.8817 128.461 39.2404 130.416C44.5443 132.351 49.3233 133.309 52.4623 133.309C54.0649 133.309 55.3643 132.011 55.3643 130.411L55.3643 115.909C64.4239 115.693 75.4463 112.6 84.3843 105.787C93.7631 98.6374 100.779 87.425 100.779 71.4846C100.779 55.4785 93.2586 44.0386 83.4614 36.686C74.7405 30.1411 64.1831 26.7941 55.3643 26.1848L55.3643 5.79627L89.2209 5.79627C90.8236 5.79627 92.1229 4.49879 92.1229 2.89826C92.1229 1.29773 90.8236 0.000244146 89.2209 0.000244146ZM49.5603 32.0219C41.773 32.7615 31.6075 36.374 23.0314 43.2007C13.4369 50.8384 5.98076 62.3686 5.98076 78.2466C5.98076 96.4475 15.0403 108.697 25.4982 116.497C30.7472 120.412 36.3291 123.183 41.2319 124.972C44.4822 126.158 47.3493 126.881 49.5603 127.238L49.5603 115.552C41.6887 114.346 34.1981 110.271 28.3927 104.587C21.4115 97.7506 16.6214 88.3448 16.6214 78.2466C16.6214 65.2055 22.4121 55.9522 29.8044 50.0254C36.0567 45.0128 43.4763 42.3545 49.5603 41.7001L49.5603 32.0219ZM55.3643 41.676L55.3643 31.9964C63.0393 32.6046 72.3267 35.5797 79.9744 41.3193C88.5194 47.7323 94.9754 57.5445 94.9754 71.4846C94.9754 85.4903 88.9079 95.047 80.8624 101.18C73.0498 107.136 63.3109 109.893 55.3643 110.111L55.3643 100.465C60.745 100.453 67.8885 98.5872 73.7558 94.0647C79.7548 89.4411 84.3347 82.0913 84.3347 71.4846C84.3347 60.8307 79.5087 53.2422 73.0638 48.3998C67.6527 44.3339 61.1288 42.2119 55.3643 41.676ZM49.5603 47.5373C44.6923 48.183 38.6126 50.3965 33.4381 54.5451C27.2754 59.4858 22.4254 67.1376 22.4254 78.2466C22.4254 86.5025 26.3661 94.4848 32.4563 100.448C37.3071 105.198 43.3657 108.514 49.5603 109.672L49.5603 99.6737C40.6976 97.2284 33.0661 89.2838 33.0661 78.2466C33.0661 67.1886 41.1948 59.6566 49.5603 58.213L49.5603 47.5373ZM55.3643 58.2009L55.3643 47.502C60.0255 48.0263 65.2696 49.7968 69.5742 53.0312C74.7003 56.8828 78.5307 62.8184 78.5307 71.4846C78.5307 80.1979 74.8636 85.8892 70.2095 89.4766C65.4603 93.137 59.5981 94.6569 55.3643 94.6687L55.3643 86.9068C58.0802 86.7289 61.3482 85.8351 64.1144 83.867C67.3602 81.5573 69.8247 77.8102 69.8247 72.4506C69.8247 66.819 66.6306 63.0925 63.0083 60.9122C60.5492 59.4321 57.7861 58.5805 55.3643 58.2009ZM49.5603 64.1325C44.1212 65.5222 38.8701 70.6826 38.8701 78.2466C38.8701 85.7171 43.6489 91.3394 49.5603 93.5914L49.5603 64.1325ZM55.3643 64.0935C56.888 64.4202 58.5509 64.9967 60.0123 65.8763C62.4084 67.3186 64.0207 69.3881 64.0207 72.4506C64.0207 75.785 62.5912 77.8339 60.7463 79.1467C59.1109 80.3104 57.0915 80.919 55.3643 81.0921L55.3643 64.0935Z" fill="white"/>
<path fill-rule="evenodd" clip-rule="evenodd" d="M127.815 0.000244141L164.573 0.000244144C166.176 0.000244144 167.475 1.29773 167.475 2.89826L167.475 26.2037C176.557 26.9408 188.038 31.0391 197.623 38.6686C208.354 47.2116 216.859 60.3145 216.859 78.2466C216.859 98.6859 206.572 112.518 195.011 121.141C189.25 125.437 183.154 128.461 177.795 130.416C172.491 132.351 167.712 133.309 164.573 133.309C162.971 133.309 161.671 132.011 161.671 130.411L161.671 115.909C152.612 115.693 141.589 112.6 132.651 105.787C123.273 98.6374 116.256 87.425 116.256 71.4846C116.256 55.4785 123.777 44.0386 133.574 36.686C142.295 30.1411 152.853 26.7941 161.671 26.1848L161.671 5.79627L127.815 5.79627C126.212 5.79627 124.913 4.49879 124.913 2.89826C124.913 1.29773 126.212 0.000244141 127.815 0.000244141ZM167.475 32.0219C175.263 32.7615 185.428 36.374 194.005 43.2007C203.599 50.8384 211.055 62.3686 211.055 78.2466C211.055 96.4475 201.995 108.697 191.537 116.497C186.289 120.412 180.707 123.183 175.804 124.972C172.554 126.158 169.686 126.881 167.475 127.238L167.475 115.552C175.347 114.346 182.838 110.271 188.643 104.587C195.624 97.7506 200.414 88.3448 200.414 78.2466C200.414 65.2055 194.624 55.9522 187.231 50.0254C180.979 45.0128 173.559 42.3545 167.475 41.7001L167.475 32.0219ZM161.671 41.676L161.671 31.9964C153.996 32.6046 144.709 35.5797 137.061 41.3193C128.516 47.7323 122.06 57.5445 122.06 71.4846C122.06 85.4903 128.128 95.047 136.173 101.18C143.986 107.136 153.725 109.893 161.671 110.111L161.671 100.465C156.291 100.453 149.147 98.5872 143.28 94.0647C137.281 89.4411 132.701 82.0913 132.701 71.4846C132.701 60.8307 137.527 53.2422 143.972 48.3998C149.383 44.3339 155.907 42.2119 161.671 41.676ZM167.475 47.5373C172.343 48.183 178.423 50.3965 183.598 54.5451C189.76 59.4858 194.61 67.1376 194.61 78.2466C194.61 86.5025 190.67 94.4848 184.579 100.448C179.729 105.198 173.67 108.514 167.475 109.672L167.475 99.6737C176.338 97.2284 183.97 89.2838 183.97 78.2466C183.97 67.1886 175.841 59.6566 167.475 58.213L167.475 47.5373ZM161.671 58.2009L161.671 47.502C157.01 48.0263 151.766 49.7968 147.462 53.0312C142.335 56.8828 138.505 62.8184 138.505 71.4846C138.505 80.1979 142.172 85.8892 146.826 89.4766C151.575 93.137 157.438 94.6569 161.671 94.6687L161.671 86.9068C158.956 86.7289 155.688 85.8351 152.921 83.867C149.676 81.5573 147.211 77.8102 147.211 72.4506C147.211 66.819 150.405 63.0925 154.027 60.9122C156.487 59.4321 159.25 58.5805 161.671 58.2009ZM167.475 64.1325C172.915 65.5222 178.166 70.6826 178.166 78.2466C178.166 85.7171 173.387 91.3394 167.475 93.5914L167.475 64.1325ZM161.671 64.0935C160.148 64.4202 158.485 64.9967 157.023 65.8763C154.627 67.3186 153.015 69.3881 153.015 72.4506C153.015 75.785 154.445 77.8339 156.289 79.1467C157.925 80.3104 159.944 80.919 161.671 81.0921L161.671 64.0935Z" fill="white"/>
</g>
<path d="M598.604 92.0426L586.017 92.0426L575.816 68.5256L552.013 78.3404L529.09 68.9127L518.889 92.0575L506.42 92.0575L546.718 2.41737e-09L558.307 3.11253e-09L598.604 92.0575L598.604 92.0426ZM571.028 58.0702L552.52 15.5638L533.624 58.4426L552.013 65.9936L571.028 58.0702Z" fill="white"/>
<path d="M481.961 63.6255L481.961 92.0426L470.372 92.0426L470.372 63.6255L433.848 0L447.956 8.4635e-10L476.04 51.8149L504.242 4.2228e-09L518.351 5.06915e-09L481.961 63.6255V63.6255Z" fill="white"/>
<path d="M410.329 0L421.917 6.95147e-10L421.917 92.0575L410.329 92.0575L410.329 0Z" fill="white"/>
<path d="M378.129 59.6192L398.398 92.0575L384.796 92.0575L365.527 62.0021L340.844 68.2872L340.844 92.0575L329.256 92.0575L329.256 0L367.66 2.30375e-09C375.847 2.79492e-09 383.528 3.27662 389.315 9.05535C395.236 14.8341 398.383 22.5042 398.383 30.6808C398.383 38.8574 395.236 46.6469 389.315 52.4405C386.034 55.583 382.261 58.1 378.099 59.6043L378.129 59.6043L378.129 59.6192ZM381.157 44.2936C384.93 40.6447 386.824 35.8638 386.824 30.7106C386.824 25.5574 384.93 20.8957 381.157 17.1277C377.637 13.6128 372.85 11.5873 367.689 11.5873L340.859 11.5873L340.859 56.8638L367.689 49.9532C372.85 48.7021 377.637 47.9425 381.157 44.2936Z" fill="white"/>
<path d="M317.324 92.0575L303.723 92.0575L281.68 56.9681L259.771 92.0575L248.183 92.0575L248.183 0L259.771 6.9515e-10L259.771 70.2979L303.723 3.33171e-09L317.324 4.14764e-09L288.48 46.1553L317.324 92.0575Z" fill="white"/>
<path d="M251.671 123.086L251.671 118.25L254.316 118.25C256.198 118.25 257.032 119.155 257.032 120.68C257.032 122.157 256.198 123.086 254.316 123.086L251.671 123.086ZM260.463 120.68C260.463 117.797 258.461 115.534 254.459 115.534L248.335 115.534L248.335 132.164L251.671 132.164L251.671 125.779L254.459 125.779C258.747 125.779 260.463 123.206 260.463 120.68ZM289.754 120.704C289.754 122.205 288.92 123.182 287.062 123.182L284.274 123.182L284.274 118.297L287.062 118.297C288.92 118.297 289.754 119.227 289.754 120.704ZM280.938 115.534L280.938 132.164L284.274 132.164L284.274 125.683L285.847 125.683L289.516 132.164L293.376 132.164L289.397 125.421C292.065 124.707 293.185 122.658 293.185 120.632C293.185 117.845 291.184 115.534 287.181 115.534L280.938 115.534ZM330.535 123.801C330.535 118.822 326.77 115.295 322.029 115.295C317.335 115.295 313.499 118.822 313.499 123.801C313.499 128.805 317.335 132.331 322.029 132.331C326.746 132.331 330.535 128.805 330.535 123.801ZM316.93 123.801C316.93 120.418 319.003 118.297 322.029 118.297C325.031 118.297 327.104 120.418 327.104 123.801C327.104 127.184 325.031 129.353 322.029 129.353C319.003 129.353 316.93 127.184 316.93 123.801ZM356.937 115.534L351.124 115.534L351.124 132.164L356.937 132.164C362.251 132.164 365.705 128.9 365.705 123.873C365.705 118.822 362.251 115.534 356.937 115.534ZM354.459 129.329L354.459 118.345L356.818 118.345C360.321 118.345 362.298 120.418 362.298 123.873C362.298 127.327 360.321 129.329 356.818 129.329L354.459 129.329ZM386.262 125.803C386.262 130.187 389.264 132.331 392.909 132.331C396.555 132.331 399.7 130.187 399.7 125.803L399.7 115.534L396.34 115.534L396.34 125.826C396.34 128.114 395.101 129.305 392.957 129.305C390.837 129.305 389.598 128.114 389.598 125.826L389.598 115.534L386.262 115.534L386.262 125.803ZM420.22 123.825C420.22 128.805 423.865 132.307 428.654 132.307C432.347 132.307 435.349 130.353 436.469 126.922L432.633 126.922C431.847 128.543 430.417 129.329 428.63 129.329C425.724 129.329 423.651 127.184 423.651 123.825C423.651 120.442 425.724 118.321 428.63 118.321C430.417 118.321 431.847 119.108 432.633 120.704L436.469 120.704C435.349 117.297 432.347 115.319 428.654 115.319C423.865 115.319 420.22 118.845 420.22 123.825ZM456.544 118.226L460.976 118.226L460.976 132.164L464.311 132.164L464.311 118.226L468.743 118.226L468.743 115.534L456.544 115.534L456.544 118.226ZM489.284 132.164L492.62 132.164L492.62 115.534L489.284 115.534L489.284 132.164ZM530.248 123.801C530.248 118.822 526.484 115.295 521.743 115.295C517.049 115.295 513.213 118.822 513.213 123.801C513.213 128.805 517.049 132.331 521.743 132.331C526.46 132.331 530.248 128.805 530.248 123.801ZM516.644 123.801C516.644 120.418 518.717 118.297 521.743 118.297C524.745 118.297 526.817 120.418 526.817 123.801C526.817 127.184 524.745 129.353 521.743 129.353C518.717 129.353 516.644 127.184 516.644 123.801ZM561.726 115.51L561.726 126.946L554.173 115.51L550.838 115.51L550.838 132.164L554.173 132.164L554.173 120.752L561.726 132.164L565.062 132.164L565.062 115.51L561.726 115.51ZM598.092 127.351C598.092 121.49 589.563 123.349 589.563 120.013C589.563 118.655 590.54 118.012 591.85 118.059C593.28 118.083 594.161 118.941 594.233 120.037L597.902 120.037C597.687 117.035 595.352 115.295 591.945 115.295C588.514 115.295 586.084 117.106 586.084 120.108C586.06 126.136 594.638 123.968 594.638 127.566C594.638 128.757 593.708 129.591 592.136 129.591C590.587 129.591 589.706 128.709 589.61 127.375L586.037 127.375C586.084 130.52 588.753 132.331 592.207 132.331C595.996 132.331 598.092 129.972 598.092 127.351Z" fill="white"/>
<defs>
<clipPath id="clip0_451_235">
<rect width="216.683" height="133.309" fill="white" transform="translate(0.176758 0.000244141)"/>
</clipPath>
</defs>
</svg>
