<svg width="82" height="50" viewBox="0 0 82 50" fill="none" xmlns="http://www.w3.org/2000/svg">
<g clip-path="url(#clip0_604_351)">
<path fill-rule="evenodd" clip-rule="evenodd" d="M33.3519 0H19.5838C18.9835 0 18.4968 0.486647 18.4968 1.08696V9.82812C15.0953 10.1046 10.7951 11.6417 7.20523 14.5033C3.18555 17.7075 0 22.622 0 29.3478C0 37.014 3.85308 42.202 8.18342 45.4361C10.3411 47.0475 12.6244 48.1818 14.6315 48.915C16.6181 49.6407 18.4081 50 19.5838 50C20.1841 50 20.6707 49.5133 20.6707 48.913V43.4737C24.0641 43.3928 28.1926 42.2328 31.5403 39.6774C35.0532 36.9958 37.6812 32.7904 37.6812 26.8116C37.6812 20.8082 34.8642 16.5175 31.1947 13.7597C27.9282 11.3049 23.9739 10.0496 20.6707 9.82101V2.17391H33.3519C33.9522 2.17391 34.4389 1.68727 34.4389 1.08696C34.4389 0.486647 33.9522 0 33.3519 0ZM18.4968 12.0104C15.5801 12.2878 11.7725 13.6427 8.5603 16.2032C4.96664 19.0678 2.17392 23.3925 2.17392 29.3478C2.17392 36.1744 5.56722 40.769 9.48429 43.6943C11.4503 45.1627 13.541 46.2022 15.3774 46.873C16.5948 47.3178 17.6687 47.589 18.4968 47.723V43.3399C15.5485 42.8877 12.7428 41.3593 10.5684 39.2272C7.95356 36.6632 6.15943 33.1354 6.15943 29.3478C6.15943 24.4565 8.32834 20.9859 11.0972 18.7629C13.439 16.8828 16.2181 15.8858 18.4968 15.6404V12.0104ZM20.6707 15.6313V12.0008C23.5455 12.2289 27.0241 13.3448 29.8886 15.4975C33.0892 17.9028 35.5073 21.5831 35.5073 26.8116C35.5073 32.0647 33.2347 35.6491 30.2212 37.9494C27.295 40.1832 23.6472 41.2175 20.6707 41.2991V37.6812C22.6861 37.6769 25.3618 36.977 27.5594 35.2807C29.8063 33.5465 31.5218 30.7899 31.5218 26.8116C31.5218 22.8157 29.7142 19.9694 27.3002 18.1532C25.2734 16.6282 22.8299 15.8323 20.6707 15.6313ZM18.4968 17.8297C16.6735 18.0719 14.3963 18.9021 12.4582 20.4581C10.1499 22.3112 8.33334 25.1812 8.33334 29.3478C8.33334 32.4443 9.80936 35.4383 12.0904 37.675C13.9073 39.4565 16.1766 40.7003 18.4968 41.1346V37.3845C15.1773 36.4673 12.3189 33.4875 12.3189 29.3478C12.3189 25.2003 15.3635 22.3753 18.4968 21.8338V17.8297ZM20.6707 21.8293V17.8164C22.4166 18.0131 24.3808 18.6772 25.9931 19.8903C27.9131 21.3349 29.3479 23.5612 29.3479 26.8116C29.3479 30.0797 27.9743 32.2143 26.2311 33.5599C24.4523 34.9328 22.2565 35.5028 20.6707 35.5072V32.596C21.688 32.5293 22.9121 32.1941 23.9481 31.4559C25.1639 30.5896 26.087 29.1841 26.087 27.1739C26.087 25.0617 24.8906 23.664 23.5339 22.8462C22.6128 22.2911 21.5779 21.9717 20.6707 21.8293ZM18.4968 24.0541C16.4596 24.5753 14.4928 26.5108 14.4928 29.3478C14.4928 32.1498 16.2827 34.2586 18.4968 35.1032V24.0541ZM20.6707 24.0394C21.2415 24.162 21.8643 24.3782 22.4117 24.7081C23.3092 25.2491 23.9131 26.0253 23.9131 27.1739C23.9131 28.4246 23.3776 29.193 22.6866 29.6854C22.0741 30.1219 21.3177 30.3501 20.6707 30.4151V24.0394Z" fill="black"/>
<path fill-rule="evenodd" clip-rule="evenodd" d="M47.8076 0H61.5757C62.176 0 62.6626 0.486647 62.6626 1.08696V9.82812C66.0642 10.1046 70.3644 11.6417 73.9544 14.5033C77.974 17.7075 81.1595 22.622 81.1595 29.3478C81.1595 37.014 77.3066 42.202 72.9761 45.4361C70.8184 47.0475 68.5351 48.1818 66.528 48.915C64.5414 49.6407 62.7514 50 61.5757 50C60.9754 50 60.4887 49.5133 60.4887 48.913V43.4737C57.0954 43.3928 52.9669 42.2328 49.6192 39.6774C46.1062 36.9958 43.4783 32.7904 43.4783 26.8116C43.4783 20.8082 46.2952 16.5175 49.9648 13.7597C53.2313 11.3049 57.1856 10.0496 60.4887 9.82101V2.17391H47.8076C47.2073 2.17391 46.7206 1.68727 46.7206 1.08696C46.7206 0.486647 47.2073 0 47.8076 0ZM62.6626 12.0104C65.5794 12.2878 69.3869 13.6427 72.5993 16.2032C76.1928 19.0678 78.9856 23.3925 78.9856 29.3478C78.9856 36.1744 75.5921 40.769 71.6752 43.6943C69.7092 45.1627 67.6184 46.2022 65.7821 46.873C64.5647 47.3178 63.4908 47.589 62.6626 47.723V43.3399C65.611 42.8877 68.4166 41.3593 70.5911 39.2272C73.2058 36.6632 75 33.1354 75 29.3478C75 24.4565 72.8312 20.9859 70.0623 18.7629C67.7205 16.8828 64.9414 15.8858 62.6626 15.6404V12.0104ZM60.4887 15.6313V12.0008C57.614 12.2289 54.1354 13.3448 51.2709 15.4975C48.0703 17.9028 45.6522 21.5831 45.6522 26.8116C45.6522 32.0647 47.9248 35.6491 50.9383 37.9494C53.8645 40.1832 57.5123 41.2175 60.4887 41.2991V37.6812C58.4734 37.6769 55.7977 36.977 53.6001 35.2807C51.3531 33.5465 49.6377 30.7899 49.6377 26.8116C49.6377 22.8157 51.4453 19.9694 53.8593 18.1532C55.886 16.6282 58.3296 15.8323 60.4887 15.6313ZM62.6626 17.8297C64.486 18.0719 66.7632 18.9021 68.7013 20.4581C71.0095 22.3112 72.8261 25.1812 72.8261 29.3478C72.8261 32.4443 71.3501 35.4383 69.069 37.675C67.2521 39.4565 64.9829 40.7003 62.6626 41.1346V37.3845C65.9822 36.4673 68.8406 33.4875 68.8406 29.3478C68.8406 25.2003 65.796 22.3753 62.6626 21.8338V17.8297ZM60.4887 21.8293V17.8164C58.7429 18.0131 56.7787 18.6772 55.1663 19.8903C53.2463 21.3349 51.8116 23.5612 51.8116 26.8116C51.8116 30.0797 53.1852 32.2143 54.9284 33.5599C56.7072 34.9328 58.9029 35.5028 60.4887 35.5072V32.596C59.4715 32.5293 58.2474 32.1941 57.2113 31.4559C55.9956 30.5896 55.0725 29.1841 55.0725 27.1739C55.0725 25.0617 56.2689 23.664 57.6256 22.8462C58.5467 22.2911 59.5816 21.9717 60.4887 21.8293ZM62.6626 24.0541C64.6999 24.5753 66.6667 26.5108 66.6667 29.3478C66.6667 32.1498 64.8768 34.2586 62.6626 35.1032V24.0541ZM60.4887 24.0394C59.918 24.162 59.2952 24.3782 58.7478 24.7081C57.8503 25.2491 57.2464 26.0253 57.2464 27.1739C57.2464 28.4246 57.7818 29.193 58.4729 29.6854C59.0854 30.1219 59.8418 30.3501 60.4887 30.4151V24.0394Z" fill="black"/>
</g>
<defs>
<clipPath id="clip0_604_351">
<rect width="81.1595" height="50" fill="white"/>
</clipPath>
</defs>
</svg>
