<svg width="601" height="134" viewBox="0 0 601 134" fill="none" xmlns="http://www.w3.org/2000/svg">
<g clip-path="url(#clip0_451_234)">
<path fill-rule="evenodd" clip-rule="evenodd" d="M89.2209 0.345947L52.4623 0.345947C50.8596 0.345947 49.5603 1.64343 49.5603 3.24396L49.5603 26.5494C40.4788 27.2865 28.9979 31.3848 19.4135 39.0143C8.68165 47.5573 0.176758 60.6602 0.176758 78.5923C0.176758 99.0316 10.4639 112.864 22.0251 121.486C27.7858 125.783 33.8817 128.807 39.2404 130.762C44.5443 132.696 49.3233 133.655 52.4623 133.655C54.0649 133.655 55.3643 132.357 55.3643 130.757L55.3643 116.254C64.4239 116.038 75.4463 112.946 84.3843 106.133C93.7631 98.9831 100.779 87.7707 100.779 71.8303C100.779 55.8242 93.2586 44.3843 83.4614 37.0317C74.7405 30.4868 64.1831 27.1398 55.3643 26.5305L55.3643 6.14197L89.2209 6.14197C90.8236 6.14197 92.1229 4.84449 92.1229 3.24396C92.1229 1.64343 90.8236 0.345947 89.2209 0.345947ZM49.5603 32.3676C41.773 33.1072 31.6075 36.7197 23.0314 43.5464C13.4369 51.1841 5.98076 62.7143 5.98076 78.5923C5.98076 96.7932 15.0403 109.043 25.4982 116.843C30.7472 120.757 36.3291 123.529 41.2319 125.318C44.4822 126.503 47.3493 127.226 49.5603 127.584L49.5603 115.897C41.6887 114.692 34.1981 110.617 28.3927 104.932C21.4115 98.0963 16.6214 88.6905 16.6214 78.5923C16.6214 65.5512 22.4121 56.2979 29.8044 50.3711C36.0567 45.3585 43.4763 42.7002 49.5603 42.0458L49.5603 32.3676ZM55.3643 42.0217L55.3643 32.3421C63.0393 32.9503 72.3267 35.9254 79.9744 41.665C88.5194 48.078 94.9754 57.8903 94.9754 71.8303C94.9754 85.836 88.9079 95.3927 80.8624 101.526C73.0498 107.481 63.3109 110.239 55.3643 110.456L55.3643 100.81C60.745 100.799 67.8885 98.9329 73.7558 94.4104C79.7548 89.7868 84.3347 82.437 84.3347 71.8303C84.3347 61.1764 79.5087 53.5879 73.0638 48.7455C67.6527 44.6796 61.1288 42.5576 55.3643 42.0217ZM49.5603 47.883C44.6923 48.5287 38.6126 50.7422 33.4381 54.8908C27.2754 59.8315 22.4254 67.4833 22.4254 78.5923C22.4254 86.8482 26.3661 94.8305 32.4563 100.794C37.3071 105.544 43.3657 108.86 49.5603 110.018L49.5603 100.019C40.6976 97.5741 33.0661 89.6295 33.0661 78.5923C33.0661 67.5343 41.1948 60.0023 49.5603 58.5587L49.5603 47.883ZM55.3643 58.5466L55.3643 47.8477C60.0255 48.372 65.2696 50.1425 69.5742 53.3769C74.7003 57.2285 78.5307 63.1641 78.5307 71.8303C78.5307 80.5436 74.8636 86.2349 70.2095 89.8223C65.4603 93.4827 59.5981 95.0026 55.3643 95.0144L55.3643 87.2525C58.0802 87.0746 61.3482 86.1808 64.1144 84.2127C67.3602 81.903 69.8247 78.1559 69.8247 72.7963C69.8247 67.1647 66.6306 63.4382 63.0083 61.2579C60.5492 59.7778 57.7861 58.9262 55.3643 58.5466ZM49.5603 64.4782C44.1212 65.8679 38.8701 71.0283 38.8701 78.5923C38.8701 86.0628 43.6489 91.6851 49.5603 93.9371L49.5603 64.4782ZM55.3643 64.4392C56.888 64.7659 58.5509 65.3424 60.0123 66.222C62.4084 67.6643 64.0207 69.7339 64.0207 72.7963C64.0207 76.1307 62.5912 78.1796 60.7463 79.4924C59.1109 80.6561 57.0915 81.2647 55.3643 81.4378L55.3643 64.4392Z" fill="black"/>
<path fill-rule="evenodd" clip-rule="evenodd" d="M127.815 0.345947L164.573 0.345947C166.176 0.345947 167.475 1.64343 167.475 3.24396L167.475 26.5494C176.557 27.2865 188.038 31.3848 197.623 39.0143C208.354 47.5573 216.859 60.6602 216.859 78.5923C216.859 99.0316 206.572 112.864 195.011 121.486C189.25 125.783 183.154 128.807 177.795 130.762C172.491 132.696 167.712 133.655 164.573 133.655C162.971 133.655 161.671 132.357 161.671 130.757L161.671 116.254C152.612 116.038 141.589 112.946 132.651 106.133C123.273 98.9831 116.256 87.7707 116.256 71.8303C116.256 55.8242 123.777 44.3843 133.574 37.0317C142.295 30.4868 152.853 27.1398 161.671 26.5305L161.671 6.14197L127.815 6.14197C126.212 6.14197 124.913 4.84449 124.913 3.24396C124.913 1.64343 126.212 0.345947 127.815 0.345947ZM167.475 32.3676C175.263 33.1072 185.428 36.7197 194.005 43.5464C203.599 51.1841 211.055 62.7143 211.055 78.5923C211.055 96.7932 201.995 109.043 191.537 116.843C186.289 120.757 180.707 123.529 175.804 125.318C172.554 126.503 169.686 127.226 167.475 127.584L167.475 115.897C175.347 114.692 182.838 110.617 188.643 104.932C195.624 98.0963 200.414 88.6905 200.414 78.5923C200.414 65.5512 194.624 56.2979 187.231 50.3711C180.979 45.3585 173.559 42.7002 167.475 42.0458L167.475 32.3676ZM161.671 42.0217L161.671 32.3421C153.996 32.9503 144.709 35.9254 137.061 41.665C128.516 48.078 122.06 57.8903 122.06 71.8303C122.06 85.836 128.128 95.3927 136.173 101.526C143.986 107.481 153.725 110.239 161.671 110.456L161.671 100.81C156.291 100.799 149.147 98.9329 143.28 94.4104C137.281 89.7868 132.701 82.437 132.701 71.8303C132.701 61.1764 137.527 53.5879 143.972 48.7455C149.383 44.6796 155.907 42.5576 161.671 42.0217ZM167.475 47.883C172.343 48.5287 178.423 50.7422 183.598 54.8908C189.76 59.8315 194.61 67.4833 194.61 78.5923C194.61 86.8482 190.67 94.8305 184.579 100.794C179.729 105.544 173.67 108.86 167.475 110.018L167.475 100.019C176.338 97.5741 183.97 89.6295 183.97 78.5923C183.97 67.5343 175.841 60.0023 167.475 58.5587L167.475 47.883ZM161.671 58.5466L161.671 47.8477C157.01 48.372 151.766 50.1425 147.462 53.3769C142.335 57.2285 138.505 63.1641 138.505 71.8303C138.505 80.5436 142.172 86.2349 146.826 89.8223C151.575 93.4827 157.438 95.0026 161.671 95.0144L161.671 87.2525C158.956 87.0746 155.688 86.1808 152.921 84.2127C149.676 81.903 147.211 78.1559 147.211 72.7963C147.211 67.1647 150.405 63.4382 154.027 61.2579C156.487 59.7778 159.25 58.9262 161.671 58.5466ZM167.475 64.4782C172.915 65.8679 178.166 71.0283 178.166 78.5923C178.166 86.0628 173.387 91.6851 167.475 93.9371L167.475 64.4782ZM161.671 64.4392C160.148 64.7659 158.485 65.3424 157.023 66.222C154.627 67.6643 153.015 69.7339 153.015 72.7963C153.015 76.1307 154.445 78.1796 156.289 79.4924C157.925 80.6561 159.944 81.2647 161.671 81.4378L161.671 64.4392Z" fill="black"/>
</g>
<path d="M598.604 92.3883L586.017 92.3883L575.816 68.8713L552.013 78.6861L529.09 69.2584L518.889 92.4032L506.42 92.4032L546.718 0.345703L558.307 0.345703L598.604 92.4032L598.604 92.3883ZM571.028 58.4159L552.52 15.9095L533.624 58.7883L552.013 66.3393L571.028 58.4159Z" fill="black"/>
<path d="M481.961 63.9712L481.961 92.3883L470.372 92.3883L470.372 63.9712L433.848 0.345703L447.956 0.345703L476.04 52.1606L504.242 0.345703L518.351 0.345703L481.961 63.9712V63.9712Z" fill="black"/>
<path d="M410.329 0.345703L421.917 0.345703L421.917 92.4032L410.329 92.4032L410.329 0.345703Z" fill="black"/>
<path d="M378.129 59.9649L398.398 92.4032L384.796 92.4032L365.527 62.3479L340.844 68.6329L340.844 92.4032L329.256 92.4032L329.256 0.345703L367.66 0.345703C375.847 0.345703 383.528 3.62232 389.315 9.40105C395.236 15.1798 398.383 22.8499 398.383 31.0265C398.383 39.2031 395.236 46.9926 389.315 52.7862C386.034 55.9287 382.261 58.4457 378.099 59.95L378.129 59.95L378.129 59.9649ZM381.157 44.6393C384.93 40.9904 386.824 36.2095 386.824 31.0563C386.824 25.9031 384.93 21.2415 381.157 17.4734C377.637 13.9585 372.85 11.933 367.689 11.933L340.859 11.933L340.859 57.2095L367.689 50.2989C372.85 49.0478 377.637 48.2883 381.157 44.6393Z" fill="black"/>
<path d="M317.324 92.4032L303.723 92.4032L281.68 57.3138L259.771 92.4032L248.183 92.4032L248.183 0.345703L259.771 0.345703L259.771 70.6436L303.723 0.345703L317.324 0.345703L288.48 46.501L317.324 92.4032Z" fill="black"/>
<path d="M251.671 123.432L251.671 118.596L254.316 118.596C256.198 118.596 257.032 119.501 257.032 121.026C257.032 122.503 256.198 123.432 254.316 123.432L251.671 123.432ZM260.463 121.026C260.463 118.143 258.461 115.879 254.459 115.879L248.335 115.879L248.335 132.51L251.671 132.51L251.671 126.124L254.459 126.124C258.747 126.124 260.463 123.551 260.463 121.026ZM289.754 121.05C289.754 122.551 288.92 123.527 287.062 123.527L284.274 123.527L284.274 118.643L287.062 118.643C288.92 118.643 289.754 119.572 289.754 121.05ZM280.938 115.879L280.938 132.51L284.274 132.51L284.274 126.029L285.847 126.029L289.516 132.51L293.376 132.51L289.397 125.767C292.065 125.052 293.185 123.003 293.185 120.978C293.185 118.19 291.184 115.879 287.181 115.879L280.938 115.879ZM330.535 124.147C330.535 119.167 326.77 115.641 322.029 115.641C317.335 115.641 313.499 119.167 313.499 124.147C313.499 129.15 317.335 132.677 322.029 132.677C326.746 132.677 330.535 129.15 330.535 124.147ZM316.93 124.147C316.93 120.764 319.003 118.643 322.029 118.643C325.031 118.643 327.104 120.764 327.104 124.147C327.104 127.53 325.031 129.698 322.029 129.698C319.003 129.698 316.93 127.53 316.93 124.147ZM356.937 115.879L351.124 115.879L351.124 132.51L356.937 132.51C362.251 132.51 365.705 129.246 365.705 124.218C365.705 119.167 362.251 115.879 356.937 115.879ZM354.459 129.675L354.459 118.691L356.818 118.691C360.321 118.691 362.298 120.764 362.298 124.218C362.298 127.673 360.321 129.675 356.818 129.675L354.459 129.675ZM386.262 126.148C386.262 130.532 389.264 132.677 392.909 132.677C396.555 132.677 399.7 130.532 399.7 126.148L399.7 115.879L396.34 115.879L396.34 126.172C396.34 128.459 395.101 129.651 392.957 129.651C390.837 129.651 389.598 128.459 389.598 126.172L389.598 115.879L386.262 115.879L386.262 126.148ZM420.22 124.171C420.22 129.15 423.865 132.653 428.654 132.653C432.347 132.653 435.349 130.699 436.469 127.268L432.633 127.268C431.847 128.888 430.417 129.675 428.63 129.675C425.724 129.675 423.651 127.53 423.651 124.171C423.651 120.788 425.724 118.667 428.63 118.667C430.417 118.667 431.847 119.453 432.633 121.05L436.469 121.05C435.349 117.643 432.347 115.665 428.654 115.665C423.865 115.665 420.22 119.191 420.22 124.171ZM456.544 118.572L460.976 118.572L460.976 132.51L464.311 132.51L464.311 118.572L468.743 118.572L468.743 115.879L456.544 115.879L456.544 118.572ZM489.284 132.51L492.62 132.51L492.62 115.879L489.284 115.879L489.284 132.51ZM530.248 124.147C530.248 119.167 526.484 115.641 521.743 115.641C517.049 115.641 513.213 119.167 513.213 124.147C513.213 129.15 517.049 132.677 521.743 132.677C526.46 132.677 530.248 129.15 530.248 124.147ZM516.644 124.147C516.644 120.764 518.717 118.643 521.743 118.643C524.745 118.643 526.817 120.764 526.817 124.147C526.817 127.53 524.745 129.698 521.743 129.698C518.717 129.698 516.644 127.53 516.644 124.147ZM561.726 115.856L561.726 127.292L554.173 115.856L550.838 115.856L550.838 132.51L554.173 132.51L554.173 121.097L561.726 132.51L565.062 132.51L565.062 115.856L561.726 115.856ZM598.092 127.697C598.092 121.836 589.563 123.694 589.563 120.359C589.563 119.001 590.54 118.357 591.85 118.405C593.28 118.429 594.161 119.286 594.233 120.382L597.902 120.382C597.687 117.38 595.352 115.641 591.945 115.641C588.514 115.641 586.084 117.452 586.084 120.454C586.06 126.482 594.638 124.314 594.638 127.911C594.638 129.103 593.708 129.937 592.136 129.937C590.587 129.937 589.706 129.055 589.61 127.721L586.037 127.721C586.084 130.866 588.753 132.677 592.207 132.677C595.996 132.677 598.092 130.318 598.092 127.697Z" fill="black"/>
<defs>
<clipPath id="clip0_451_234">
<rect width="216.683" height="133.309" fill="white" transform="translate(0.176758 0.345947)"/>
</clipPath>
</defs>
</svg>
